<svg width="32" height="32" viewBox="0 0 32 32" fill="none" xmlns="http://www.w3.org/2000/svg">
<path fill-rule="evenodd" clip-rule="evenodd" d="M18.0881 24.2038C17.6781 24.6138 17.6781 25.2787 18.0881 25.6887C18.4982 26.0988 19.163 26.0988 19.573 25.6887L26.2865 18.9753L26.2866 18.9752C26.6584 18.6034 26.9812 18.2806 27.2257 17.9926C27.4844 17.6878 27.7166 17.3536 27.8507 16.9409C28.0498 16.3283 28.0498 15.6685 27.8507 15.0559C27.7166 14.6433 27.4844 14.309 27.2257 14.0043C26.9812 13.7162 26.6584 13.3934 26.2866 13.0216L26.2865 13.0216L19.573 6.30815C19.163 5.8981 18.4982 5.8981 18.0881 6.30815C17.6781 6.7182 17.6781 7.38302 18.0881 7.79307L24.7732 14.4781C24.9798 14.6847 25.1487 14.8539 25.2887 14.9984H5C4.44772 14.9984 4 15.4461 4 15.9984C4 16.5507 4.44772 16.9984 5 16.9984H25.2887C25.1486 17.143 24.9798 17.3121 24.7732 17.5187L18.0881 24.2038Z" fill="#1A1A1A"/>
</svg>
